<svg id="Layer_1" data-name="Layer 1" xmlns="http://www.w3.org/2000/svg" viewBox="0 0 24 24"><defs><style>.cls-1{fill:#020202;fill-rule:evenodd;}</style></defs><path class="cls-1" d="M12.5,8a.5.5,0,0,0,.5-.5.5.5,0,0,0-1,0A.5.5,0,0,0,12.5,8Z"/><path class="cls-1" d="M15.5,15a.5.5,0,0,0-.5.5.5.5,0,0,0,1,0A.5.5,0,0,0,15.5,15Z"/><path class="cls-1" d="M16.1,6.33a3.48,3.48,0,0,0-1.53.45l-.37.16-.34-1,.31-.13.65-.26A6.91,6.91,0,0,0,10,5.28l-.13,0c.35.14.77.3,1.26.53l-.41.91A13.37,13.37,0,0,0,8.51,6a7,7,0,0,0-3.41,5c.33,0,.65-.07,1-.08l0,1A9.66,9.66,0,0,0,5,12v0a7,7,0,0,0,3,5.72,8.86,8.86,0,0,1-.38-2.39c0-.16,0-.32,0-.49a6.7,6.7,0,0,1,.06-1.42l1,.2a5.69,5.69,0,0,0,0,1.19c0,.18,0,.35,0,.52a8.94,8.94,0,0,0,.68,3.11,7,7,0,0,0,3.87.45c.12-.2.25-.41.4-.62a4.25,4.25,0,0,0,.52-.94l1,.28a3.46,3.46,0,0,1-.43.86,6.73,6.73,0,0,0,1.68-.93A7,7,0,0,0,16.1,6.33Zm-.37,7-1,.06a8.67,8.67,0,0,0-1.45-4.31l.84-.54A9.75,9.75,0,0,1,15.73,13.32ZM12.5,6A1.51,1.51,0,1,1,11,7.49,1.5,1.5,0,0,1,12.5,6Zm-4,7A1.5,1.5,0,1,1,10,11.5,1.5,1.5,0,0,1,8.5,13Zm.78-3.36a4.61,4.61,0,0,0,.25-.4,3.74,3.74,0,0,1,.89-1.06l.66.76a2.51,2.51,0,0,0-.69.82l-.27.43Zm4.11,4.6a8.25,8.25,0,0,0-3.06-1.93l.32-.94a9.28,9.28,0,0,1,3.43,2.14ZM15.5,17A1.5,1.5,0,1,1,17,15.5,1.5,1.5,0,0,1,15.5,17Z"/><path class="cls-1" d="M8.5,11a.5.5,0,0,0-.5.5.5.5,0,0,0,1,0A.5.5,0,0,0,8.5,11Z"/><path class="cls-1" d="M0,0V24H24V0ZM16.89,18.33a7.81,7.81,0,0,1-2.31,1.24A8,8,0,0,1,4,12a3.93,3.93,0,0,1,0-.49,8,8,0,0,1,5.7-7.18A8,8,0,0,1,20,12,8,8,0,0,1,16.89,18.33Z"/></svg>