<svg id="Layer_1" data-name="Layer 1" xmlns="http://www.w3.org/2000/svg" viewBox="0 0 24 24"><defs><style>.cls-1{fill:#020202;fill-rule:evenodd;}</style></defs><path class="cls-1" d="M17,5H7.11A2.12,2.12,0,0,0,5,7.11v.78S5,8,5,8H8V9H5.32a2.11,2.11,0,0,0,1.79,1H17.25a1.76,1.76,0,0,0,1.58-1H11V8h8V7A2,2,0,0,0,17,5ZM10,9H9V8h1Z"/><path class="cls-1" d="M6.91,11v8H17V11H7.11ZM14,14l.65-.76,1.66,1.44a.49.49,0,0,1,.17.38.48.48,0,0,1-.17.37l-1.66,1.45L14,16.1,15.24,15ZM12.5,12.4l.93.37-1.93,4.9-.93-.37ZM7.67,14.59l1.65-1.46.66.75L8.73,15,10,16.2l-.7.72L7.65,15.33A.53.53,0,0,1,7.5,15,.48.48,0,0,1,7.67,14.59Z"/><path class="cls-1" d="M0,0V24H24V0ZM20,8.25a2.75,2.75,0,0,1-2,2.63V19.5a.5.5,0,0,1-.5.5H6.41a.5.5,0,0,1-.5-.5V10.76A3.12,3.12,0,0,1,4,7.89V7.11A3.12,3.12,0,0,1,7.11,4H17a3,3,0,0,1,3,3Z"/></svg>