<svg id="svg3476" xmlns="http://www.w3.org/2000/svg" viewBox="0 0 290.19 409.6"><defs><style>.cls-1{fill:#264de4;}</style></defs><g id="layer1"><g id="g3013"><path id="path2999" d="M68.29,0h44V18.4H86.69V36.8h25.6V55.2h-44Z" transform="translate(0 0)"/><path id="path3001" d="M121.09,0h44V16h-25.6v3.2h25.6V56h-44V39.2h25.6V36h-25.6Z" transform="translate(0 0)"/><path id="path3003" d="M173.89,0h44V16h-25.6v3.2h25.6V56h-44V39.2h25.6V36h-25.6Z" transform="translate(0 0)"/><path class="cls-1" d="M0,80.5,26.41,376.7l118.51,32.9,118.83-32.94L290.19,80.5ZM229.41,214.57l-.88,9.76L220,320l-.55,6.14-74.35,20.6h0l-.16,0L70.51,326.11l-5.09-57h36.47l2.59,29L144.93,309h0L185.49,298l4.21-47.12H63.8l-3.26-36.33H192.85l3.31-37.2H57.3L54,141H236Z" transform="translate(0 0)"/></g></g></svg>