<svg id="Layer_1" data-name="Layer 1" xmlns="http://www.w3.org/2000/svg" viewBox="0 0 24 24"><defs><style>.cls-1{fill:#020202;fill-rule:evenodd;}</style></defs><polygon class="cls-1" points="13 9 12 9 11 9 10 9 10 10 10 11 10 12 10 13 10 14 11 14 12 14 13 14 14 14 15 14 15 13 15 12 15 11 15 10 15 9 14 9 13 9"/><path class="cls-1" d="M0,0V24H24V0ZM13,19.24a.78.78,0,0,1-.8.76H4.78A.78.78,0,0,1,4,19.22V12.76A.78.78,0,0,1,4.8,12H7v1H5v6h7V17h1ZM17,10H16v1h1v1H16v1h1v1H16v.31a.69.69,0,0,1-.69.69H15v1H14V15H13v1H12V15H11v1H10V15H9.69A.69.69,0,0,1,9,14.31V14H8V13H9V12H8V11H9V10H8V9H9V8.69A.69.69,0,0,1,9.69,8H10V7h1V8h1V7h1V8h1V7h1V8h.31a.69.69,0,0,1,.69.69V9h1Zm3,2.22a.78.78,0,0,1-.78.78H18V12h1V5H12V6H11V4.78A.78.78,0,0,1,11.78,4h7.44a.78.78,0,0,1,.78.78Z"/></svg>