<svg id="Layer_1" data-name="Layer 1" xmlns="http://www.w3.org/2000/svg" viewBox="0 0 24 24"><defs><style>.cls-1{fill:#020202;fill-rule:evenodd;}</style></defs><path class="cls-1" d="M14,7.57l2.8,1.72a.49.49,0,0,1,.24.42v2.83l2,1.52V8.31L14,5.38Z"/><path class="cls-1" d="M12.71,16.64a.51.51,0,0,1-.45,0l-4-1.94A.49.49,0,0,1,8,14.26V9.69a.49.49,0,0,1,.24-.42L11,7.56V5.37L6,8.31v7.36L12.53,19l5.38-2.14-2.09-1.74Z"/><path class="cls-1" d="M0,0V24H24V0ZM19.06,17.43,12.7,20a.43.43,0,0,1-.19,0,.59.59,0,0,1-.23-.05l-7-3.53A.52.52,0,0,1,5,16V8a.48.48,0,0,1,.25-.43l6-3.53a.52.52,0,0,1,.51,0A.49.49,0,0,1,12,4.5V7.83a.5.5,0,0,1-.23.42L9,10v4l3.46,1.69L15.66,14a.52.52,0,0,1,.55.06l3,2.49a.46.46,0,0,1,.17.45A.49.49,0,0,1,19.06,17.43ZM20,15.08a.51.51,0,0,1-.28.45.59.59,0,0,1-.22.05.51.51,0,0,1-.31-.11l-3-2.3a.51.51,0,0,1-.19-.39V10l-2.8-1.71A.5.5,0,0,1,13,7.84V4.51a.5.5,0,0,1,.25-.43.49.49,0,0,1,.51,0l6,3.51A.48.48,0,0,1,20,8Z"/></svg>