<svg id="Layer_1" data-name="Layer 1" xmlns="http://www.w3.org/2000/svg" viewBox="0 0 362.8 512"><defs><style>.cls-1{fill:#e44d26;}</style></defs><path d="M108.4,0h23V22.8h21.2V0h23V69h-23V46h-21V69H108.4M206,23H185.7V0h63.7V23H229V69H206M259.5,0h24.1l14.8,24.3L313.2,0h24.1V69h-23V34.8L298.2,59.6,282.1,34.8V69H259.5M348.7,0h23V46.2h32.6V69H348.7" transform="translate(-74.6)"/><path class="cls-1" d="M74.6,100.6l33,370.4,148.1,41,148.7-41.2,33-370.2ZM365.4,221.7H191.8l4.2,46.5H361.3L348.8,407.6,256,433.34v.26l-93.2-26-6.4-71.3H202l3.2,36.3,50.7,13.57,50.6-13.57,5.3-59h-56v-.1H154.4L142,176.3H369.6Z" transform="translate(-74.6)"/></svg>