<svg id="Layer_1" data-name="Layer 1" xmlns="http://www.w3.org/2000/svg" viewBox="0 0 140 393.41"><defs><style>.cls-1,.cls-2,.cls-3{fill:none;stroke:#000;stroke-width:2px;}.cls-1{stroke-linecap:round;}.cls-1,.cls-3{stroke-linejoin:round;}.cls-2{stroke-miterlimit:10;}</style></defs><path class="cls-1" d="M75.76,234.6c0-41.4-7.5-59.6-7.5-59.6,1.5,0,1.7-1.8,1.7-1.8l20.3,5.6c.6-4.5-8.1-10.7-8.1-10.7,2.8-.5,10.3,3.9,10.3,3.9-2.4-14-14.9-12.6-14.9-12.6.6-.9,9.3-4.1,9.3-4.1-12.2-11.7-21.3,5.2-21.3,5.2-9.6-16.4-21.1-6.1-21.1-6.1l8.4,4.4c-12.1-.5-14.3,11.1-14.3,11.1,12.8-4.6,18.1-1.7,18.1-1.7-17.9,10.5-4.9,22.7-4.9,22.7,1.6-14.5,9.2-17.1,9.2-17.1.6,1.2,1.4.9,1.4.9.6,2.6,2.3,2,2.3,2,6.8,18,6.2,49,5.9,57.8" transform="translate(-3.06)"/><path class="cls-2" d="M102.36,240.3" transform="translate(-3.06)"/><path class="cls-1" d="M73.26,190.2a10.77,10.77,0,0,1,7.3-5,21.59,21.59,0,0,0-5.2-2.2s10.4-7.6,14.6,3.8c0,0,3.8-10.7,14.3-4.2l-5,2.6s6,.3,9,8.1c0,0-6.6-3.2-13-1,0,0,11.9,1.8,4,14.8,0,0-1.2-9.4-6.4-11.4a.92.92,0,0,1-1.1.4s-.4,1.5-1.5,1.4c0,0-7.3,12-9.5,36.7" transform="translate(-3.06)"/><path class="cls-1" d="M77.16,234.1c1-6.7,4.7-29.2,11-38.1,0,0-1.4-.3-1-1.2,0,0-5.4,1.2-10.6,9.2,0,0-.7-9.9,3.5-12.4a30.75,30.75,0,0,0-5.9,1.6" transform="translate(-3.06)"/><path class="cls-1" d="M85.86,233.4" transform="translate(-3.06)"/><path class="cls-1" d="M95.16,238.6c-3.5-1.2-9.3-3.1-14.3-2.6,0,0-8.3,1.6-11.4.5s-13.9,4.1-13.9,4.1h39.5" transform="translate(-3.06)"/><path class="cls-1" d="M73.06,276.5" transform="translate(-3.06)"/><polyline class="cls-1" points="74.8 119.7 139 156.8 139 236.6 74.8 273.8"/><polyline class="cls-3" points="70 0 70 116.9 1 156.8 1 236.6 70 276.5 70 393.41"/></svg>