<?xml version="1.0" encoding="utf-8"?>
<!-- Generator: Adobe Illustrator 26.0.3, SVG Export Plug-In . SVG Version: 6.00 Build 0)  -->
<svg version="1.1" id="Layer_1" xmlns="http://www.w3.org/2000/svg" xmlns:xlink="http://www.w3.org/1999/xlink" x="0px" y="0px"
	 viewBox="0 0 64 64" style="enable-background:new 0 0 64 64;" xml:space="preserve">
<style type="text/css">
	.st0{fill:#009438;}
</style>
<path class="st0" d="M59.2,15.5L32.7,0.2c-0.5-0.3-1-0.2-1.5,0.1L4.9,15.5c-0.5,0.2-0.8,0.8-0.8,1.3V32v0v15.3
	c0,0.6,0.2,0.9,0.7,1.2l26.4,15.2c0.5,0.3,1.1,0.3,1.6,0c1.2-0.7,2.4-1.4,3.6-2.1l22.7-13.1c0.5-0.3,0.7-0.8,0.7-1.3V16.8
	C59.9,16.2,59.6,15.7,59.2,15.5z M48,44.3c0,1.4-0.7,2.4-1.8,3.1c-0.9,0.5-1.8,0.6-2.8,0.5c-1.5-0.1-2.8-0.7-3.9-1.7
	c-0.6-0.5-1-1.2-1.5-1.8l-15-17.9c0-0.1-0.1-0.1-0.1-0.2l0,0v17.8c0,2-1.6,3.8-3.7,3.7c-1.3-0.1-2.3-0.6-3-1.7
	c-0.4-0.5-0.5-1.1-0.5-1.8V19.7c0-1.7,1-2.8,2.3-3.4s2.6-0.4,3.9,0c1.2,0.4,2.2,1.1,3,2.1l15.7,18.9c0.1,0.1,0.1,0.2,0.2,0.3v-18
	c0-1.9,1.3-3.4,3.1-3.6c2.3-0.3,3.8,1.4,4.1,3.1V44.3z"/>
</svg>
