<svg id="svg2" xmlns="http://www.w3.org/2000/svg" xmlns:xlink="http://www.w3.org/1999/xlink" viewBox="0 0 82.19 83.09"><defs><style>.cls-1{fill:url(#linear-gradient);}.cls-2{fill:url(#linear-gradient-2);}</style><linearGradient id="linear-gradient" x1="379.5" y1="-263.13" x2="460.1" y2="-332.48" gradientTransform="matrix(0.56, 0, 0, -0.57, -214.91, -146.18)" gradientUnits="userSpaceOnUse"><stop offset="0" stop-color="#5a9fd4"/><stop offset="1" stop-color="#306998"/></linearGradient><linearGradient id="linear-gradient-2" x1="491.26" y1="-374.45" x2="462.48" y2="-333.73" gradientTransform="matrix(0.56, 0, 0, -0.57, -214.91, -146.18)" gradientUnits="userSpaceOnUse"><stop offset="0" stop-color="#ffd43b"/><stop offset="1" stop-color="#ffe873"/></linearGradient></defs><path id="path1948" class="cls-1" d="M41.2.9a57.57,57.57,0,0,0-9.48.81C23.33,3.19,21.81,6.3,21.81,12v7.55H41.64v2.52H14.37C8.61,22.09,3.57,25.55,2,32.14.17,39.69.09,44.4,2,52.29,3.4,58.16,6.76,62.34,12.52,62.34h6.82V53.28A12.59,12.59,0,0,1,31.72,41h19.8a10,10,0,0,0,9.92-10.08V12c0-5.38-4.54-9.41-9.92-10.31A63.05,63.05,0,0,0,41.2.9ZM30.48,7a3.78,3.78,0,1,1-3.72,3.79A3.77,3.77,0,0,1,30.48,7Z" transform="translate(-0.59 -0.9)"/><path id="path1950" class="cls-2" d="M63.91,22.09v8.8A12.72,12.72,0,0,1,51.52,43.46H31.72a10.11,10.11,0,0,0-9.91,10.08V72.41c0,5.38,4.67,8.54,9.91,10.08a33.19,33.19,0,0,0,19.8,0c5-1.45,9.92-4.36,9.92-10.08V64.86H41.64V62.34H71.35c5.76,0,7.91-4,9.91-10.05,2.07-6.21,2-12.18,0-20.15-1.42-5.73-4.14-10-9.91-10ZM52.77,69.89a3.78,3.78,0,1,1-3.72,3.77A3.74,3.74,0,0,1,52.77,69.89Z" transform="translate(-0.59 -0.9)"/></svg>