<svg id="Layer_1" data-name="Layer 1" xmlns="http://www.w3.org/2000/svg" viewBox="0 0 24 24"><defs><style>.cls-1,.cls-2{fill:#020202;}.cls-2{fill-rule:evenodd;}</style></defs><ellipse class="cls-1" cx="11.41" cy="11.8" rx="0.51" ry="0.48"/><path class="cls-2" d="M5.21,8.83,6.48,18.2c0,.2,1,.83,4.8.83a17.16,17.16,0,0,0,3.4-.32,7.13,7.13,0,0,0,1-.27l.27-.1.43-.17.68-4.1a34.17,34.17,0,0,1-4.24-1.64,1.55,1.55,0,0,1-1.37.82,1.46,1.46,0,1,1,0-2.91,1.51,1.51,0,0,1,1.46,1.06,34.31,34.31,0,0,0,4.31,1.7l.7-4.28a17.72,17.72,0,0,1-6.47,1A15.7,15.7,0,0,1,5.21,8.83Z"/><path class="cls-2" d="M11.41,6C7.29,6,5,6.92,5,7.42v0c0,.5,2.28,1.45,6.39,1.45,4.31,0,6.65-1,6.7-1.45v0C18.09,7,15.74,6,11.41,6Z"/><path class="cls-2" d="M0,0V24H24V0ZM19.82,14.18a.89.89,0,0,1-.77.27A5,5,0,0,1,18,14.31l-.67,4c0,.52-.54.71-1.06.9l-.26.1a7.76,7.76,0,0,1-1.1.31,18,18,0,0,1-3.63.35c-5.52,0-5.73-1.25-5.8-1.66L4,7.49V7.43C4,5.76,7.84,5,11.41,5c3.11,0,7.73.65,7.73,2.43,0,0,0,.05,0,.07h0l-.77,4.66c1.07.58,1.54,1,1.63,1.42A.7.7,0,0,1,19.82,14.18Z"/><path class="cls-2" d="M18.16,13.35a2.86,2.86,0,0,0,.43.08l-.4-.24Z"/></svg>