<?xml version="1.0" encoding="utf-8"?>
<!-- Generator: Adobe Illustrator 26.0.3, SVG Export Plug-In . SVG Version: 6.00 Build 0)  -->
<svg version="1.1" id="Layer_1" xmlns="http://www.w3.org/2000/svg" xmlns:xlink="http://www.w3.org/1999/xlink" x="0px" y="0px"
	 viewBox="0 0 1000 1000" style="enable-background:new 0 0 1000 1000;" xml:space="preserve">
<style type="text/css">
	.st0{fill:#A7A9AC;}
</style>
<g>
	<path class="st0" d="M264.3,859.2c-14.8,0-22.8-7.4-22.8-22.8v-618c0-7.4-2.5-11.1-8.6-11.1h-168c-14.8,0-21.5-7.4-21.5-22.2v-20.3
		c0-15.4,6.8-22.8,21.5-22.8h418.5c14.2,0,20.9,7.4,20.9,22.8v20.3c0,14.8-6.8,22.2-20.9,22.2H314.7c-5.5,0-8.6,3.7-8.6,11.1v618
		c0,15.4-7.4,22.8-22.8,22.8H264.3z"/>
	<path class="st0" d="M569.6,859.2c-14.8,0-22.2-7.4-22.2-22.8V163.6c0-15.4,7.4-22.8,22.2-22.8h19.1c14.8,0,22.8,7.4,22.8,22.8V448
		c0,2.5,1.2,4.9,3.1,7.4c1.8,1.8,4.3,3.1,6.8,3.1h84.9c51.1,0,94.2-28.3,131.1-84.9c38.2-57.9,56.6-126.8,56.6-208
		c0-15.4,7.4-22.8,22.2-22.8h19.1c16.6,0,21.5,8.6,21.5,19.1v4.3c-0.6,115.7-41.9,257.3-144,325c102.2,68.3,144,209.3,144,325.6
		v19.7c0,15.4-7.4,22.8-22.8,22.8h-19.1c-17.2,0-21.5-5.5-21.5-26.5c0-79.4-11.1-155.7-56-224c-36.9-56.6-80-84.3-131.1-84.3h-84.9
		c-2.5,0-4.9,1.2-6.8,2.5c-1.8,2.5-3.1,5.5-3.1,8v301.6c0,15.4-8,22.8-22.8,22.8H569.6z"/>
</g>
</svg>
