<?xml version="1.0" encoding="utf-8"?>
<!-- Generator: Adobe Illustrator 26.0.3, SVG Export Plug-In . SVG Version: 6.00 Build 0)  -->
<svg version="1.1" id="Layer_1" xmlns="http://www.w3.org/2000/svg" xmlns:xlink="http://www.w3.org/1999/xlink" x="0px" y="0px"
	 viewBox="0 0 1000 1000" style="enable-background:new 0 0 1000 1000;" xml:space="preserve">
<style type="text/css">
	.st0{fill:#A7A9AC;}
</style>
<g>
	<path class="st0" d="M216.3,684.8c0,36.4,21.4,46.7,53.8,46.7v79.1c-86.3,0-131.4-36.4-131.4-125.8V475.9H68.4v-72.8h70.4V254.3
		l77.5-23.7v172.5h91.8v72.8h-91.8V684.8z"/>
	<path class="st0" d="M760.7,798.7h-98.9l-144-193.1H483v193.1h-78.3V213.2l78.3-23.7V536h34.8l136.9-138.5h100.5L589,568.4
		L760.7,798.7z"/>
	<path class="st0" d="M877.8,802.7c-30.1,0-53.8-22.9-53.8-51.4c0-27.7,23.7-50.6,53.8-50.6c29.3,0,53.8,22.9,53.8,50.6
		C931.6,779.7,907.1,802.7,877.8,802.7z"/>
</g>
</svg>
