<svg id="Layer_1" data-name="Layer 1" xmlns="http://www.w3.org/2000/svg" viewBox="0 0 512 512"><defs><style>.cls-1{fill:#3178c6;}</style></defs><path class="cls-1" d="M462,0H50A50,50,0,0,0,0,50V462a50,50,0,0,0,50,50H462a50,50,0,0,0,50-50V50A50,50,0,0,0,462,0ZM297,284.08H232.78V467H181.91V284.08H118V243H297ZM462.88,434.57a57.84,57.84,0,0,1-19.33,20.65,84.14,84.14,0,0,1-28.4,11.34A164.57,164.57,0,0,1,381,470a190,190,0,0,1-35.14-3.13,106,106,0,0,1-28.87-9.39V407.42h0a96,96,0,0,0,29.58,17.13,95,95,0,0,0,32.24,5.71,71.44,71.44,0,0,0,16.67-1.72,38.74,38.74,0,0,0,11.89-4.77,20.77,20.77,0,0,0,7.12-7.19,17.94,17.94,0,0,0,2.35-9A19.39,19.39,0,0,0,413,395.85a40.38,40.38,0,0,0-10.25-9.55,108.29,108.29,0,0,0-15.41-8.44q-8.92-4.07-19.25-8.29-26.3-10.95-39.21-26.75T316,304.64q0-17.52,7-30.11a59.83,59.83,0,0,1,19.17-20.73,86.26,86.26,0,0,1,28.1-12,144.65,144.65,0,0,1,33.8-3.83,203.22,203.22,0,0,1,31.07,2.11,122.48,122.48,0,0,1,25,6.49v46.78a75.45,75.45,0,0,0-12.28-6.88,96,96,0,0,0-13.7-4.93,103.84,103.84,0,0,0-14-2.9,100,100,0,0,0-13.22-.93,68.68,68.68,0,0,0-15.65,1.64,40.1,40.1,0,0,0-11.9,4.61,23.09,23.09,0,0,0-7.51,7.12,16.92,16.92,0,0,0-2.66,9.31,17.72,17.72,0,0,0,3,10.09,34,34,0,0,0,8.45,8.45,89.77,89.77,0,0,0,13.3,7.82q7.83,3.83,17.68,7.9a194.59,194.59,0,0,1,24.18,12A85.66,85.66,0,0,1,454.19,361a55.64,55.64,0,0,1,11.74,18.23Q470,389.43,470,403,470,421.82,462.88,434.57Z"/></svg>